<svg xmlns="http://www.w3.org/2000/svg" xmlns:xlink="http://www.w3.org/1999/xlink" width="500" zoomAndPan="magnify" viewBox="0 0 375 374.999991" height="500" preserveAspectRatio="xMidYMid meet" version="1.0"><defs><clipPath id="8305b99bf8"><path d="M 37.5 0 L 337.5 0 C 347.445312 0 356.984375 3.949219 364.015625 10.984375 C 371.050781 18.015625 375 27.554688 375 37.5 L 375 337.5 C 375 347.445312 371.050781 356.984375 364.015625 364.015625 C 356.984375 371.050781 347.445312 375 337.5 375 L 37.5 375 C 27.554688 375 18.015625 371.050781 10.984375 364.015625 C 3.949219 356.984375 0 347.445312 0 337.5 L 0 37.5 C 0 27.554688 3.949219 18.015625 10.984375 10.984375 C 18.015625 3.949219 27.554688 0 37.5 0 " clip-rule="nonzero"/></clipPath><clipPath id="7e39bb7e7e"><path d="M 102.902344 102.902344 L 272.402344 102.902344 L 272.402344 272.402344 L 102.902344 272.402344 Z M 102.902344 102.902344 " clip-rule="nonzero"/></clipPath></defs><g clip-path="url(#8305b99bf8)"><rect x="-37.5" width="450" fill="#000000" y="-37.499999" height="449.999989" fill-opacity="1"/></g><g clip-path="url(#7e39bb7e7e)"><path fill="#ffffff" d="M 221.089844 109.359375 C 231.355469 113.59375 240.394531 119.691406 248.003906 127.300781 C 255.609375 134.90625 261.707031 143.949219 265.941406 154.210938 C 270.105469 164.402344 272.402344 175.667969 272.402344 187.652344 C 272.402344 199.636719 270.105469 210.902344 265.941406 221.089844 C 261.707031 231.355469 255.609375 240.394531 248.003906 248.003906 C 240.394531 255.609375 231.355469 261.707031 221.089844 265.941406 C 210.902344 270.105469 199.636719 272.402344 187.652344 272.402344 C 175.667969 272.402344 164.402344 270.105469 154.210938 265.941406 C 143.949219 261.707031 134.90625 255.609375 127.300781 248.003906 C 119.691406 240.394531 113.59375 231.355469 109.359375 221.089844 C 105.199219 210.902344 102.902344 199.636719 102.902344 187.652344 C 102.902344 175.667969 105.199219 164.402344 109.359375 154.210938 C 113.59375 143.949219 119.691406 134.90625 127.300781 127.300781 C 134.90625 119.691406 143.949219 113.59375 154.210938 109.359375 C 164.402344 105.199219 175.667969 102.902344 187.652344 102.902344 C 199.636719 102.902344 210.902344 105.199219 221.089844 109.359375 Z M 219.082031 260.847656 C 228.554688 256.972656 237.09375 251.230469 244.199219 244.199219 C 251.230469 237.09375 256.972656 228.554688 260.847656 219.082031 C 264.792969 209.464844 266.945312 198.917969 266.945312 187.652344 C 266.945312 176.382812 264.792969 165.835938 260.847656 156.21875 C 256.972656 146.746094 251.230469 138.207031 244.199219 131.101562 C 237.09375 124.070312 228.554688 118.328125 219.082031 114.453125 C 209.464844 110.507812 198.917969 108.355469 187.652344 108.355469 C 176.382812 108.355469 165.835938 110.507812 156.21875 114.453125 C 146.746094 118.328125 138.207031 124.070312 131.101562 131.101562 C 124.070312 138.207031 118.328125 146.746094 114.453125 156.21875 C 110.507812 165.835938 108.355469 176.382812 108.355469 187.652344 C 108.355469 198.917969 110.507812 209.464844 114.453125 219.082031 C 118.328125 228.554688 124.070312 237.09375 131.101562 244.199219 C 138.207031 251.230469 146.746094 256.972656 156.21875 260.847656 C 165.835938 264.792969 176.382812 266.945312 187.652344 266.945312 C 198.917969 266.945312 209.464844 264.792969 219.082031 260.847656 Z M 219.082031 260.847656 " fill-opacity="1" fill-rule="evenodd"/></g><path fill="#ffffff" d="M 173.441406 153.347656 C 173.296875 153.347656 173.15625 153.421875 173.011719 153.492188 C 172.652344 153.636719 172.367188 153.851562 172.078125 154.066406 C 171.863281 154.355469 171.648438 154.640625 171.503906 155 C 171.433594 155.144531 171.359375 155.285156 171.359375 155.429688 C 171.289062 155.574219 171.289062 155.644531 171.289062 155.789062 L 171.289062 158.585938 L 203.582031 158.585938 L 203.582031 155.789062 C 203.582031 155.644531 203.582031 155.574219 203.511719 155.429688 C 203.511719 155.285156 203.4375 155.144531 203.367188 155 C 203.222656 154.710938 203.007812 154.355469 202.722656 154.136719 C 202.433594 153.851562 202.148438 153.636719 201.789062 153.492188 C 201.644531 153.421875 201.5 153.347656 201.359375 153.347656 C 201.214844 153.277344 201.140625 153.277344 201 153.277344 L 173.800781 153.277344 C 173.65625 153.277344 173.585938 153.277344 173.441406 153.347656 Z M 165.835938 155.789062 C 165.835938 155.214844 165.90625 154.710938 166.050781 154.210938 C 166.121094 153.707031 166.339844 153.207031 166.554688 152.703125 C 166.910156 151.769531 167.558594 150.980469 168.277344 150.261719 C 168.992188 149.546875 169.78125 148.898438 170.714844 148.542969 C 171.21875 148.324219 171.71875 148.109375 172.222656 148.039062 C 172.726562 147.894531 173.226562 147.824219 173.800781 147.824219 L 201 147.824219 C 201.574219 147.824219 202.074219 147.894531 202.578125 148.039062 C 203.078125 148.109375 203.582031 148.324219 204.085938 148.542969 C 205.015625 148.898438 205.804688 149.546875 206.523438 150.261719 C 207.3125 150.910156 207.886719 151.769531 208.316406 152.703125 C 208.535156 153.132812 208.75 153.636719 208.820312 154.136719 C 208.964844 154.710938 209.035156 155.214844 209.035156 155.789062 L 209.035156 158.585938 L 228.84375 158.585938 C 233.003906 158.585938 237.238281 162.75 237.238281 166.910156 L 237.238281 174.445312 L 193.679688 188.726562 C 193.390625 188.582031 193.105469 188.511719 192.890625 188.441406 C 192.601562 188.367188 192.242188 188.367188 191.957031 188.367188 L 182.914062 188.367188 C 182.628906 188.367188 182.269531 188.367188 181.980469 188.441406 C 181.765625 188.511719 181.480469 188.582031 181.265625 188.65625 L 137.707031 174.445312 L 137.707031 166.910156 C 137.707031 162.75 141.867188 158.585938 146.03125 158.585938 L 165.835938 158.585938 Z M 182.84375 192.027344 L 192.027344 192.027344 C 192.101562 192.027344 192.171875 192.027344 192.242188 192.027344 C 192.316406 192.101562 192.460938 192.171875 192.53125 192.316406 C 192.675781 192.386719 192.746094 192.53125 192.816406 192.601562 C 192.816406 192.675781 192.816406 192.675781 192.816406 192.746094 L 192.890625 192.816406 L 192.890625 195.902344 L 192.816406 195.976562 C 192.816406 196.046875 192.816406 196.117188 192.816406 196.117188 C 192.746094 196.261719 192.675781 196.40625 192.53125 196.476562 C 192.460938 196.621094 192.316406 196.691406 192.171875 196.765625 C 192.171875 196.765625 192.101562 196.765625 192.027344 196.765625 L 191.957031 196.835938 L 182.914062 196.835938 L 182.84375 196.765625 C 182.769531 196.765625 182.699219 196.765625 182.699219 196.765625 C 182.554688 196.691406 182.414062 196.621094 182.339844 196.476562 C 182.195312 196.40625 182.125 196.261719 182.054688 196.117188 C 182.054688 196.117188 182.054688 196.046875 182.054688 195.976562 L 182.054688 192.746094 C 182.054688 192.675781 182.054688 192.675781 182.054688 192.601562 C 182.125 192.53125 182.195312 192.386719 182.339844 192.316406 C 182.414062 192.171875 182.554688 192.101562 182.628906 192.027344 C 182.699219 192.027344 182.769531 192.027344 182.84375 192.027344 Z M 196.40625 191.886719 C 196.40625 191.8125 196.335938 191.742188 196.335938 191.667969 L 237.238281 178.25 L 237.238281 215.996094 C 237.238281 220.160156 233.003906 224.394531 228.84375 224.394531 L 146.03125 224.394531 C 141.867188 224.394531 137.707031 220.160156 137.707031 215.996094 L 137.707031 178.25 L 178.539062 191.667969 C 178.539062 191.742188 178.464844 191.8125 178.464844 191.886719 C 178.394531 192.171875 178.394531 192.53125 178.394531 192.816406 L 178.394531 195.902344 C 178.394531 196.191406 178.394531 196.550781 178.464844 196.835938 C 178.539062 197.125 178.609375 197.410156 178.753906 197.699219 C 178.96875 198.199219 179.328125 198.628906 179.757812 199.0625 C 180.1875 199.492188 180.617188 199.851562 181.121094 200.066406 C 181.40625 200.210938 181.695312 200.28125 181.980469 200.351562 C 182.269531 200.425781 182.628906 200.496094 182.914062 200.496094 L 191.957031 200.496094 C 192.242188 200.496094 192.601562 200.425781 192.890625 200.351562 C 193.175781 200.28125 193.464844 200.210938 193.75 200.066406 C 194.253906 199.851562 194.683594 199.492188 195.113281 199.0625 C 195.542969 198.628906 195.902344 198.199219 196.117188 197.699219 C 196.261719 197.410156 196.335938 197.125 196.40625 196.835938 C 196.476562 196.550781 196.550781 196.191406 196.550781 195.902344 L 196.550781 192.816406 C 196.550781 192.53125 196.476562 192.171875 196.40625 191.886719 Z M 196.40625 191.886719 " fill-opacity="1" fill-rule="evenodd"/></svg>