<svg xmlns="http://www.w3.org/2000/svg" xmlns:xlink="http://www.w3.org/1999/xlink" width="500" zoomAndPan="magnify" viewBox="0 0 375 374.999991" height="500" preserveAspectRatio="xMidYMid meet" version="1.0"><defs><clipPath id="ee427e9703"><path d="M 18.75 0 L 356.25 0 C 361.222656 0 365.992188 1.976562 369.507812 5.492188 C 373.023438 9.007812 375 13.777344 375 18.75 L 375 356.25 C 375 361.222656 373.023438 365.992188 369.507812 369.507812 C 365.992188 373.023438 361.222656 375 356.25 375 L 18.75 375 C 13.777344 375 9.007812 373.023438 5.492188 369.507812 C 1.976562 365.992188 0 361.222656 0 356.25 L 0 18.75 C 0 13.777344 1.976562 9.007812 5.492188 5.492188 C 9.007812 1.976562 13.777344 0 18.75 0 " clip-rule="nonzero"/></clipPath><clipPath id="f5516070b8"><path d="M 72.324219 72.324219 L 302.574219 72.324219 L 302.574219 302.574219 L 72.324219 302.574219 Z M 72.324219 72.324219 " clip-rule="nonzero"/></clipPath></defs><rect x="-37.5" width="450" fill="#ffffff" y="-37.499999" height="449.999989" fill-opacity="1"/><rect x="-37.5" width="450" fill="#ffffff" y="-37.499999" height="449.999989" fill-opacity="1"/><rect x="-37.5" width="450" fill="#fffdfd" y="-37.499999" height="449.999989" fill-opacity="1"/><g clip-path="url(#ee427e9703)"><rect x="-37.5" width="450" fill="#000000" y="-37.499999" height="449.999989" fill-opacity="1"/></g><g clip-path="url(#f5516070b8)"><path fill="#00ff00" d="M 144.898438 229.996094 L 144.898438 266.285156 L 181.183594 266.285156 L 181.183594 229.996094 L 232.851562 229.996094 C 242.15625 229.996094 250.257812 226.222656 256.382812 220.144531 C 262.460938 214.0625 266.238281 205.914062 266.238281 196.613281 L 266.238281 141.996094 C 266.238281 132.695312 262.460938 124.589844 256.382812 118.464844 C 250.304688 112.386719 242.15625 108.609375 232.851562 108.609375 L 178.285156 108.609375 C 168.980469 108.609375 160.875 112.386719 154.75 118.464844 C 148.628906 124.542969 144.898438 132.695312 144.898438 141.996094 L 144.898438 193.664062 L 72.324219 193.664062 L 72.324219 229.953125 L 144.898438 229.953125 Z M 108.609375 193.710938 L 108.609375 141.996094 C 108.609375 122.839844 116.4375 105.433594 128.917969 92.628906 C 141.71875 80.152344 159.125 72.324219 178.285156 72.324219 L 232.851562 72.324219 C 252.007812 72.324219 269.417969 80.152344 282.21875 92.628906 C 294.742188 105.433594 302.574219 122.839844 302.574219 141.996094 L 302.574219 196.566406 C 302.574219 215.722656 294.742188 233.128906 282.265625 245.929688 C 269.507812 258.410156 252.054688 266.238281 232.898438 266.238281 L 181.183594 266.238281 L 181.183594 302.574219 L 144.898438 302.574219 L 144.898438 266.285156 L 108.609375 266.285156 Z M 216.644531 144.898438 L 194.585938 144.898438 C 191.085938 144.898438 187.632812 146.371094 185.28125 148.949219 C 182.65625 151.253906 181.230469 154.75 181.230469 158.25 L 181.230469 193.664062 L 216.644531 193.664062 C 220.144531 193.664062 223.597656 192.191406 225.945312 189.613281 C 228.570312 187.308594 229.996094 183.808594 229.996094 180.308594 L 229.996094 158.25 C 229.996094 154.75 228.523438 151.296875 225.945312 148.949219 C 223.597656 146.371094 220.097656 144.898438 216.644531 144.898438 Z M 216.644531 144.898438 " fill-opacity="1" fill-rule="nonzero"/></g></svg>