<svg xmlns="http://www.w3.org/2000/svg" xmlns:xlink="http://www.w3.org/1999/xlink" width="500" zoomAndPan="magnify" viewBox="0 0 375 374.999991" height="500" preserveAspectRatio="xMidYMid meet" version="1.0"><defs><clipPath id="f3e8ca1fd9"><path d="M 37.5 0 L 337.5 0 C 347.445312 0 356.984375 3.949219 364.015625 10.984375 C 371.050781 18.015625 375 27.554688 375 37.5 L 375 337.5 C 375 347.445312 371.050781 356.984375 364.015625 364.015625 C 356.984375 371.050781 347.445312 375 337.5 375 L 37.5 375 C 27.554688 375 18.015625 371.050781 10.984375 364.015625 C 3.949219 356.984375 0 347.445312 0 337.5 L 0 37.5 C 0 27.554688 3.949219 18.015625 10.984375 10.984375 C 18.015625 3.949219 27.554688 0 37.5 0 " clip-rule="nonzero"/></clipPath><clipPath id="2cd4ec04f5"><path d="M 120 105.179688 L 270.179688 105.179688 L 270.179688 157 L 120 157 Z M 120 105.179688 " clip-rule="nonzero"/></clipPath><clipPath id="62185ccad9"><path d="M 105.179688 161 L 255 161 L 255 214 L 105.179688 214 Z M 105.179688 161 " clip-rule="nonzero"/></clipPath><clipPath id="af0b9577a8"><path d="M 120 218 L 270.179688 218 L 270.179688 270.179688 L 120 270.179688 Z M 120 218 " clip-rule="nonzero"/></clipPath></defs><g clip-path="url(#f3e8ca1fd9)"><rect x="-37.5" width="450" fill="#000000" y="-37.499999" height="449.999989" fill-opacity="1"/></g><path fill="#ffffff" d="M 185.101562 125.804688 L 205.726562 125.804688 C 207.148438 125.804688 208.304688 124.648438 208.304688 123.226562 C 208.304688 121.804688 207.148438 120.648438 205.726562 120.648438 L 185.101562 120.648438 C 183.679688 120.648438 182.523438 121.804688 182.523438 123.226562 C 182.523438 124.648438 183.679688 125.804688 185.101562 125.804688 Z M 185.101562 125.804688 " fill-opacity="1" fill-rule="nonzero"/><path fill="#ffffff" d="M 257.289062 136.117188 L 185.101562 136.117188 C 183.679688 136.117188 182.523438 137.273438 182.523438 138.695312 C 182.523438 140.117188 183.679688 141.273438 185.101562 141.273438 L 257.289062 141.273438 C 258.710938 141.273438 259.867188 140.117188 259.867188 138.695312 C 259.867188 137.273438 258.710938 136.117188 257.289062 136.117188 Z M 257.289062 136.117188 " fill-opacity="1" fill-rule="nonzero"/><path fill="#ffffff" d="M 169.632812 182.523438 L 190.257812 182.523438 C 191.679688 182.523438 192.835938 181.367188 192.835938 179.945312 C 192.835938 178.523438 191.679688 177.367188 190.257812 177.367188 L 169.632812 177.367188 C 168.210938 177.367188 167.054688 178.523438 167.054688 179.945312 C 167.054688 181.367188 168.210938 182.523438 169.632812 182.523438 Z M 169.632812 182.523438 " fill-opacity="1" fill-rule="nonzero"/><path fill="#ffffff" d="M 169.632812 197.992188 L 241.820312 197.992188 C 243.242188 197.992188 244.398438 196.835938 244.398438 195.414062 C 244.398438 193.992188 243.242188 192.835938 241.820312 192.835938 L 169.632812 192.835938 C 168.210938 192.835938 167.054688 193.992188 167.054688 195.414062 C 167.054688 196.835938 168.210938 197.992188 169.632812 197.992188 Z M 169.632812 197.992188 " fill-opacity="1" fill-rule="nonzero"/><g clip-path="url(#2cd4ec04f5)"><path fill="#ffffff" d="M 257.289062 105.179688 L 133.539062 105.179688 C 126.421875 105.179688 120.648438 110.953125 120.648438 118.070312 L 120.648438 143.851562 C 120.648438 150.964844 126.421875 156.742188 133.539062 156.742188 L 257.289062 156.742188 C 264.402344 156.742188 270.179688 150.964844 270.179688 143.851562 L 270.179688 118.070312 C 270.179688 110.953125 264.402344 105.179688 257.289062 105.179688 Z M 166.492188 119.683594 L 145.867188 145.464844 C 145.410156 146.03125 144.722656 146.382812 143.996094 146.425781 C 143.949219 146.429688 143.898438 146.429688 143.851562 146.429688 C 143.171875 146.429688 142.511719 146.160156 142.027344 145.675781 L 131.714844 135.363281 C 130.707031 134.359375 130.707031 132.722656 131.714844 131.71875 C 132.71875 130.714844 134.351562 130.714844 135.359375 131.71875 L 143.632812 139.996094 L 162.460938 116.460938 C 163.351562 115.359375 164.976562 115.171875 166.085938 116.058594 C 167.199219 116.945312 167.378906 118.570312 166.492188 119.683594 Z M 265.023438 143.851562 C 265.023438 148.128906 261.566406 151.585938 257.289062 151.585938 L 177.367188 151.585938 L 177.367188 110.335938 L 257.289062 110.335938 C 261.566406 110.335938 265.023438 113.789062 265.023438 118.070312 Z M 265.023438 143.851562 " fill-opacity="1" fill-rule="nonzero"/></g><g clip-path="url(#62185ccad9)"><path fill="#ffffff" d="M 254.710938 200.570312 L 254.710938 174.789062 C 254.710938 167.671875 248.933594 161.898438 241.820312 161.898438 L 118.070312 161.898438 C 110.953125 161.898438 105.179688 167.671875 105.179688 174.789062 L 105.179688 200.570312 C 105.179688 207.683594 110.953125 213.460938 118.070312 213.460938 L 241.820312 213.460938 C 248.933594 213.460938 254.710938 207.683594 254.710938 200.570312 Z M 151.023438 176.402344 L 130.398438 202.183594 C 129.941406 202.757812 129.257812 203.105469 128.527344 203.148438 C 128.480469 203.148438 128.429688 203.148438 128.382812 203.148438 C 127.703125 203.148438 127.042969 202.878906 126.558594 202.394531 L 116.246094 192.082031 C 115.238281 191.078125 115.238281 189.441406 116.246094 188.4375 C 117.25 187.429688 118.882812 187.433594 119.890625 188.4375 L 128.164062 196.710938 L 146.992188 173.179688 C 147.882812 172.078125 149.503906 171.890625 150.617188 172.777344 C 151.730469 173.664062 151.910156 175.289062 151.023438 176.402344 Z M 161.898438 167.054688 L 241.820312 167.054688 C 246.097656 167.054688 249.554688 170.507812 249.554688 174.789062 L 249.554688 200.570312 C 249.554688 204.847656 246.097656 208.304688 241.820312 208.304688 L 161.898438 208.304688 Z M 161.898438 167.054688 " fill-opacity="1" fill-rule="nonzero"/></g><g clip-path="url(#af0b9577a8)"><path fill="#ffffff" d="M 257.289062 218.617188 L 133.539062 218.617188 C 126.421875 218.617188 120.648438 224.390625 120.648438 231.507812 L 120.648438 257.289062 C 120.648438 264.402344 126.421875 270.179688 133.539062 270.179688 L 257.289062 270.179688 C 264.402344 270.179688 270.179688 264.402344 270.179688 257.289062 L 270.179688 231.507812 C 270.179688 224.390625 264.402344 218.617188 257.289062 218.617188 Z M 166.492188 233.121094 L 145.867188 258.902344 C 145.410156 259.476562 144.726562 259.824219 143.996094 259.867188 C 143.949219 259.867188 143.898438 259.867188 143.851562 259.867188 C 143.171875 259.867188 142.511719 259.597656 142.027344 259.113281 L 131.714844 248.800781 C 130.707031 247.796875 130.707031 246.160156 131.714844 245.15625 C 132.71875 244.148438 134.351562 244.152344 135.359375 245.15625 L 143.632812 253.429688 L 162.460938 229.898438 C 163.351562 228.796875 164.976562 228.609375 166.085938 229.496094 C 167.199219 230.382812 167.378906 232.007812 166.492188 233.121094 Z M 265.023438 257.289062 C 265.023438 261.566406 261.566406 265.023438 257.289062 265.023438 L 177.367188 265.023438 L 177.367188 223.773438 L 257.289062 223.773438 C 261.566406 223.773438 265.023438 227.226562 265.023438 231.507812 Z M 265.023438 257.289062 " fill-opacity="1" fill-rule="nonzero"/></g><path fill="#ffffff" d="M 185.101562 239.242188 L 205.726562 239.242188 C 207.148438 239.242188 208.304688 238.085938 208.304688 236.664062 C 208.304688 235.242188 207.148438 234.085938 205.726562 234.085938 L 185.101562 234.085938 C 183.679688 234.085938 182.523438 235.242188 182.523438 236.664062 C 182.523438 238.085938 183.679688 239.242188 185.101562 239.242188 Z M 185.101562 239.242188 " fill-opacity="1" fill-rule="nonzero"/><path fill="#ffffff" d="M 257.289062 249.554688 L 185.101562 249.554688 C 183.679688 249.554688 182.523438 250.710938 182.523438 252.132812 C 182.523438 253.554688 183.679688 254.710938 185.101562 254.710938 L 257.289062 254.710938 C 258.710938 254.710938 259.867188 253.554688 259.867188 252.132812 C 259.867188 250.710938 258.710938 249.554688 257.289062 249.554688 Z M 257.289062 249.554688 " fill-opacity="1" fill-rule="nonzero"/></svg>