<svg xmlns="http://www.w3.org/2000/svg" xmlns:xlink="http://www.w3.org/1999/xlink" width="500" zoomAndPan="magnify" viewBox="0 0 375 374.999991" height="500" preserveAspectRatio="xMidYMid meet" version="1.0"><defs><clipPath id="fdb612646b"><path d="M 37.5 0 L 337.5 0 C 347.445312 0 356.984375 3.949219 364.015625 10.984375 C 371.050781 18.015625 375 27.554688 375 37.5 L 375 337.5 C 375 347.445312 371.050781 356.984375 364.015625 364.015625 C 356.984375 371.050781 347.445312 375 337.5 375 L 37.5 375 C 27.554688 375 18.015625 371.050781 10.984375 364.015625 C 3.949219 356.984375 0 347.445312 0 337.5 L 0 37.5 C 0 27.554688 3.949219 18.015625 10.984375 10.984375 C 18.015625 3.949219 27.554688 0 37.5 0 " clip-rule="nonzero"/></clipPath><clipPath id="d20e7e211f"><path d="M 86.027344 86.027344 L 289.277344 86.027344 L 289.277344 289.277344 L 86.027344 289.277344 Z M 86.027344 86.027344 " clip-rule="nonzero"/></clipPath></defs><g clip-path="url(#fdb612646b)"><rect x="-37.5" width="450" fill="#000000" y="-37.499999" height="449.999989" fill-opacity="1"/></g><g clip-path="url(#d20e7e211f)"><path fill="#ffffff" d="M 187.636719 86.042969 C 215.695312 86.042969 241.101562 97.417969 259.496094 115.808594 C 277.886719 134.199219 289.261719 159.605469 289.261719 187.667969 C 289.261719 215.730469 277.886719 241.136719 259.496094 259.53125 C 241.105469 277.921875 215.699219 289.292969 187.636719 289.292969 C 159.574219 289.292969 134.167969 277.921875 115.773438 259.53125 C 97.382812 241.136719 86.011719 215.730469 86.011719 187.667969 C 86.011719 159.609375 97.382812 134.203125 115.773438 115.808594 C 134.167969 97.417969 159.574219 86.042969 187.636719 86.042969 Z M 257.230469 118.074219 C 239.421875 100.261719 214.816406 89.246094 187.636719 89.246094 C 160.457031 89.246094 135.847656 100.261719 118.039062 118.074219 C 100.230469 135.882812 89.210938 160.488281 89.210938 187.667969 C 89.210938 214.851562 100.230469 239.457031 118.039062 257.265625 C 135.847656 275.074219 160.457031 286.09375 187.636719 286.09375 C 214.816406 286.09375 239.421875 275.074219 257.230469 257.265625 C 275.042969 239.457031 286.058594 214.851562 286.058594 187.667969 C 286.058594 160.488281 275.042969 135.882812 257.230469 118.074219 Z M 257.230469 118.074219 " fill-opacity="1" fill-rule="nonzero"/></g><path fill="#ffffff" d="M 218.910156 145.453125 L 224.304688 153.984375 L 242.710938 141.253906 L 241.367188 139.304688 L 225.957031 149.960938 C 225.703125 150.136719 225.390625 150.203125 225.089844 150.140625 C 224.785156 150.078125 224.519531 149.898438 224.359375 149.636719 L 220.914062 144.183594 Z M 223.980469 156.714844 C 223.902344 156.714844 223.828125 156.707031 223.75 156.695312 C 223.445312 156.632812 223.183594 156.453125 223.019531 156.191406 L 216.386719 145.707031 C 216.050781 145.175781 216.210938 144.480469 216.738281 144.148438 L 220.652344 141.675781 C 220.90625 141.515625 221.214844 141.464844 221.507812 141.527344 C 221.796875 141.589844 222.050781 141.773438 222.214844 142.027344 L 225.636719 147.4375 L 241 136.804688 C 241.515625 136.449219 242.214844 136.578125 242.574219 137.09375 L 245.207031 140.902344 C 245.375 141.144531 245.441406 141.453125 245.386719 141.746094 C 245.335938 142.042969 245.167969 142.300781 244.917969 142.476562 L 224.613281 156.527344 C 224.433594 156.648438 224.207031 156.714844 223.980469 156.714844 Z M 223.980469 156.714844 " fill-opacity="1" fill-rule="evenodd"/><path fill="#ffffff" d="M 125.429688 248.773438 L 221.183594 248.773438 L 221.183594 220.648438 C 221.183594 205.140625 208.570312 192.523438 193.0625 192.523438 L 188.125 192.523438 C 183.734375 195.46875 178.621094 197.023438 173.3125 197.023438 C 167.996094 197.023438 162.882812 195.46875 158.496094 192.523438 L 153.558594 192.523438 C 138.050781 192.523438 125.433594 205.140625 125.433594 220.648438 Z M 222.316406 251.03125 L 124.296875 251.03125 C 123.675781 251.03125 123.167969 250.523438 123.167969 249.902344 L 123.167969 220.648438 C 123.167969 203.890625 136.796875 190.261719 153.554688 190.261719 L 158.835938 190.261719 C 159.066406 190.261719 159.289062 190.332031 159.480469 190.460938 C 163.558594 193.273438 168.339844 194.761719 173.3125 194.761719 C 178.277344 194.761719 183.058594 193.277344 187.136719 190.460938 C 187.328125 190.328125 187.546875 190.261719 187.78125 190.261719 L 193.066406 190.261719 C 209.820312 190.261719 223.449219 203.890625 223.449219 220.648438 L 223.449219 249.902344 C 223.445312 250.523438 222.9375 251.03125 222.316406 251.03125 Z M 222.316406 251.03125 " fill-opacity="1" fill-rule="evenodd"/><path fill="#ffffff" d="M 173.371094 136.566406 C 159.929688 136.566406 148.996094 147.496094 148.996094 160.9375 C 148.996094 174.378906 159.929688 185.3125 173.371094 185.3125 C 186.808594 185.3125 197.742188 174.378906 197.742188 160.9375 C 197.742188 147.503906 186.808594 136.566406 173.371094 136.566406 Z M 173.371094 187.570312 C 158.683594 187.570312 146.734375 175.621094 146.734375 160.9375 C 146.734375 146.253906 158.683594 134.304688 173.371094 134.304688 C 188.058594 134.304688 200.003906 146.253906 200.003906 160.9375 C 200.003906 175.625 188.054688 187.570312 173.371094 187.570312 Z M 173.371094 187.570312 " fill-opacity="1" fill-rule="evenodd"/><path fill="#ffffff" d="M 143.300781 251.03125 C 142.679688 251.03125 142.171875 250.523438 142.171875 249.902344 L 142.171875 229.398438 C 142.171875 228.773438 142.679688 228.269531 143.300781 228.269531 C 143.929688 228.269531 144.433594 228.777344 144.433594 229.398438 L 144.433594 249.902344 C 144.433594 250.523438 143.925781 251.03125 143.300781 251.03125 Z M 143.300781 251.03125 " fill-opacity="1" fill-rule="evenodd"/><path fill="#ffffff" d="M 203.3125 251.03125 C 202.6875 251.03125 202.179688 250.523438 202.179688 249.902344 L 202.179688 229.398438 C 202.179688 228.773438 202.6875 228.269531 203.3125 228.269531 C 203.933594 228.269531 204.441406 228.777344 204.441406 229.398438 L 204.441406 249.902344 C 204.441406 250.523438 203.933594 251.03125 203.3125 251.03125 Z M 203.3125 251.03125 " fill-opacity="1" fill-rule="evenodd"/><path fill="#ffffff" d="M 225.980469 165.171875 Z M 230.816406 126.566406 C 220.324219 126.566406 211.792969 135.105469 211.792969 145.597656 C 211.792969 150.382812 213.574219 154.953125 216.816406 158.472656 C 217.054688 158.734375 217.15625 159.097656 217.09375 159.449219 L 215.257812 169.367188 L 225.46875 164.164062 L 225.472656 164.171875 C 225.6875 164.066406 225.929688 164.023438 226.175781 164.058594 C 228.078125 164.34375 230.25 164.625 230.816406 164.625 C 241.3125 164.625 249.84375 156.089844 249.84375 145.597656 C 249.84375 135.105469 241.304688 126.566406 230.816406 126.566406 Z M 213.722656 172.542969 C 213.488281 172.542969 213.246094 172.46875 213.050781 172.320312 C 212.703125 172.0625 212.535156 171.628906 212.613281 171.207031 L 214.765625 159.578125 C 211.382812 155.699219 209.527344 150.757812 209.527344 145.59375 C 209.527344 133.855469 219.074219 124.300781 230.816406 124.300781 C 242.558594 124.300781 252.109375 133.851562 252.109375 145.59375 C 252.109375 157.332031 242.558594 166.882812 230.816406 166.882812 C 230 166.882812 227.507812 166.535156 226.175781 166.339844 L 214.238281 172.421875 C 214.074219 172.507812 213.898438 172.542969 213.722656 172.542969 Z M 213.722656 172.542969 " fill-opacity="1" fill-rule="evenodd"/></svg>